<?xml version="1.0" standalone="no"?><!DOCTYPE svg PUBLIC "-//W3C//DTD SVG 1.1//EN" "http://www.w3.org/Graphics/SVG/1.1/DTD/svg11.dtd"><svg t="1753424626485" class="icon" viewBox="0 0 1275 1024" version="1.1" xmlns="http://www.w3.org/2000/svg" p-id="1256" xmlns:xlink="http://www.w3.org/1999/xlink" width="249.0234375" height="200"><path d="M581.270239 953.267649h248.671759v41.41939h-248.671759v-41.41939z m663.176499-335.706876c0-149.203056-116.098628-269.42031-261.105348-285.972523 8.237252 28.985802 12.433588 62.16794 12.433588 95.272368q4.118626 33.182138-8.314962 87.035116c37.300764 12.433588 62.16794 49.734352 62.16794 87.035116 0 53.930688-41.41939 95.350078-95.350078 95.350077-16.552214 0-28.985802-4.118626-41.41939-8.314962l-37.300764 49.734352c-37.300764 41.4971-70.482902 74.601528-107.783666 107.783666q91.231452 99.468704 186.50382 149.203056 111.902292-58.049314 207.25237-165.75527 91.153742-107.783666 82.91649-211.370996z m-493.224894 124.33588q132.650842-157.518018 120.217254-315.036035c0-236.238172-194.818782-426.860618-435.175579-426.860618-240.434508 0-435.17558 190.622446-435.17558 431.056954Q-11.345649 588.497262 121.227483 746.015279q145.08443 165.75527 315.036036 252.790386 169.873896-87.035116 314.958325-256.909012z m-314.958325-186.503819c-78.797864 0-145.08443-62.16794-145.08443-140.965804 0-78.720154 66.286566-140.888094 145.08443-140.888094 78.720154 0 145.00672 58.049314 145.00672 136.769468a146.871758 146.871758 0 0 1-145.00672 145.08443z" p-id="1257"></path></svg>