<?xml version="1.0" standalone="no"?><!DOCTYPE svg PUBLIC "-//W3C//DTD SVG 1.1//EN" "http://www.w3.org/Graphics/SVG/1.1/DTD/svg11.dtd"><svg t="1753424650860" class="icon" viewBox="0 0 1170 1024" version="1.1" xmlns="http://www.w3.org/2000/svg" p-id="1713" xmlns:xlink="http://www.w3.org/1999/xlink" width="228.515625" height="200"><path d="M994.800367 237.799783H175.540099C78.554194 237.799783 0 313.0626 0 405.952569v450.11407C0 948.664041 78.554194 1024 175.466957 1024H994.727226C1091.71313 1024 1170.267324 948.737183 1170.267324 855.993497V405.879428c0-92.889969-78.554194-168.079644-175.466957-168.079645zM819.33341 670.725551H626.678152v185.341088a41.032498 41.032498 0 0 1-41.910198 40.081656 41.032498 41.032498 0 0 1-41.910199-40.081656V669.920993H350.933914a41.10564 41.10564 0 0 1-36.570854-40.154798c0-20.260253 15.579184-37.302271 36.570854-40.081656h191.923841V404.343452c0-22.161937 18.724277-40.154798 41.910199-40.154798 23.11278 0 41.910199 17.99286 41.910198 40.227939v185.267946h191.8507c20.99167 2.706243 36.570854 19.821403 36.570854 40.081656a41.10564 41.10564 0 0 1-36.570854 40.154798l0.804558 0.731417zM317.215587 75.059483h548.343383c21.649946 0 39.130814-16.822593 39.130813-37.521696A38.326255 38.326255 0 0 0 865.55897 0.016091H317.215587a38.399397 38.399397 0 0 0-39.130814 37.521696c0 20.699103 17.55401 37.521696 39.130814 37.521696zM160.546049 198.083836h861.609317c21.723087 0 39.203955-16.822593 39.203955-37.521696a38.399397 38.399397 0 0 0-39.130813-37.521696H160.61919a38.399397 38.399397 0 0 0-39.203955 37.521696c0 20.699103 17.55401 37.521696 39.130814 37.521696z" p-id="1714"></path></svg>