<?xml version="1.0" standalone="no"?><!DOCTYPE svg PUBLIC "-//W3C//DTD SVG 1.1//EN" "http://www.w3.org/Graphics/SVG/1.1/DTD/svg11.dtd"><svg t="1753424637432" class="icon" viewBox="0 0 1024 1024" version="1.1" xmlns="http://www.w3.org/2000/svg" p-id="1409" xmlns:xlink="http://www.w3.org/1999/xlink" width="200" height="200"><path d="M1008.175865 643.371493l-364.788372 364.788372a54.014278 54.014278 0 0 1-72.317695 3.711882l360.948494-360.884497a64.829934 64.829934 0 0 0 0-91.709077L502.271991 129.659867h46.142529c14.399541 0 28.159102 5.695818 38.206782 15.807496l421.490565 421.490565c21.055329 21.119327 21.055329 55.294237 0 76.413565z m-129.723865-76.413565L457.025433 145.467363a53.694288 53.694288 0 0 0-38.206782-15.807496h-75.517593c1.663947 14.335543 2.559918 28.799082 2.559918 43.262621 0 43.262621-7.423763 84.285313-20.799337 115.45232-5.183835 12.159612-10.879653 21.823304-16.639469 29.439062a86.397246 86.397246 0 1 1-49.086436-15.231515c6.079806 0 16.831463-9.791688 25.983172-31.231004 11.007649-25.599184 17.279449-61.438042 17.279449-98.428863 0-14.463539-0.959969-28.927078-2.943906-43.262621h-80.63743c2.879908-20.799337 7.807751-39.870729 14.335543-55.230239 9.215706-21.439317 19.903366-31.231005 25.983172-31.231005 6.079806 0 16.831463 9.791688 25.983172 31.231005 6.59179 15.35951 11.519633 34.430903 14.335543 55.230239h43.646609A265.079551 265.079551 0 0 0 325.061639 57.40617C303.686321 7.487761 274.695245 0 259.335734 0c-15.35951 0-44.286588 7.423763-65.661907 57.40617a267.319479 267.319479 0 0 0-18.239418 72.317695H54.030278A54.078276 54.078276 0 0 0 0.016 183.674145v364.788373c0 14.399541 5.63182 28.159102 15.807496 38.206782l421.426567 421.490565c21.119327 21.119327 55.358235 21.119327 76.413564 0l364.788373-364.788372a54.078276 54.078276 0 0 0 0-76.413565z" p-id="1410"></path></svg>